<svg viewBox="6.3 172.8 1136 447.99999999999994" xmlns="http://www.w3.org/2000/svg" width="2500" height="609">
    <path fill="#b2b2b2" d="M555.6 379.2c-18.7 0-33.9 14.2-33.9 33.8 0 19.5 15.2 33.8 33.9 33.8s33.9-14.3 33.9-33.8-15.2-33.8-33.9-33.8zm0 54.3c-10.2 0-19.1-8.5-19.1-20.5 0-12.2 8.8-20.5 19.1-20.5s19.1 8.3 19.1 20.5c-.1 12-8.9 20.5-19.1 20.5zm90.8-46.7h-.5c-3.3-4-9.7-7.6-17.8-7.6-16.9 0-32.4 14.9-32.4 33.9 0 18.9 15.5 33.7 32.4 33.7 8.1 0 14.5-3.6 17.8-7.7h.5v4.9c0 12.9-6.9 19.8-18 19.8-9.1 0-14.7-6.5-17-12l-12.9 5.4c3.7 9 13.6 20 30 20 17.4 0 32.1-10.2 32.1-35.2v-60.7h-14.1zm-17 46.7c-10.2 0-18.8-8.6-18.8-20.4 0-11.9 8.6-20.6 18.8-20.6 10.1 0 18 8.7 18 20.6s-7.9 20.4-18 20.4zm-147.8-54.3c-18.7 0-33.9 14.2-33.9 33.8 0 19.5 15.2 33.8 33.9 33.8s33.9-14.3 33.9-33.8-15.2-33.8-33.9-33.8zm0 54.3c-10.2 0-19.1-8.5-19.1-20.5 0-12.2 8.8-20.5 19.1-20.5 10.2 0 19.1 8.3 19.1 20.5-.1 12-8.9 20.5-19.1 20.5zm-88.1-44v14.3h34.3c-1 8.1-3.7 14-7.8 18.1-5 5-12.8 10.5-26.5 10.5-21.1 0-37.6-17-37.6-38.1s16.5-38.1 37.6-38.1c11.4 0 19.7 4.5 25.9 10.2l10.1-10.1c-8.6-8.2-20-14.5-36-14.5-28.9 0-53.3 23.6-53.3 52.5s24.3 52.5 53.3 52.5c15.6 0 27.4-5.1 36.6-14.7 9.5-9.5 12.4-22.8 12.4-33.5 0-3.3-.3-6.4-.8-9zm360 11.3c-2.8-7.6-11.4-21.5-28.9-21.5-17.4 0-31.9 13.7-31.9 33.8 0 18.9 14.3 33.8 33.5 33.8 15.5 0 24.5-9.5 28.2-15l-11.5-7.7c-3.8 5.6-9.1 9.3-16.6 9.3s-12.9-3.5-16.4-10.2l45.2-18.7zm-46 11.2c-.4-13.1 10.1-19.7 17.7-19.7 5.9 0 10.9 2.9 12.5 7.2zm-36.8 32.8h14.8v-99.3h-14.8zm152.4-99.3h-35.5v99." opacity=".54"/>
</svg>